<svg width="80" height="80" viewBox="0 0 80 80" xmlns="http://www.w3.org/2000/svg">
  <!-- Character Illustration Only -->
  <g transform="translate(40, 40)">
    <!-- Jester body (light blue color like the original) -->
    <ellipse cx="0" cy="2" rx="18" ry="22" fill="#87ceeb"/>
    <ellipse cx="0" cy="0" rx="15" ry="18" fill="#b0e0e6"/>
    
    <!-- Jester collar/ruff -->
    <ellipse cx="0" cy="-15" rx="20" ry="6" fill="#ffffff" opacity="0.9"/>
    <ellipse cx="0" cy="-16" rx="18" ry="4" fill="#e6e6fa"/>
    
    <!-- Jester head (pale/beige color) -->
    <circle cx="0" cy="-20" r="12" fill="#f5deb3"/>
    <circle cx="0" cy="-22" r="10" fill="#faebd7"/>
    
    <!-- Jester hat (red with white trim) -->
    <ellipse cx="-8" cy="-30" rx="8" ry="12" fill="#dc143c" transform="rotate(-20 -8 -30)"/>
    <ellipse cx="8" cy="-30" rx="8" ry="12" fill="#dc143c" transform="rotate(20 8 -30)"/>
    <!-- Hat trim -->
    <ellipse cx="-8" cy="-22" rx="6" ry="3" fill="white" transform="rotate(-20 -8 -22)"/>
    <ellipse cx="8" cy="-22" rx="6" ry="3" fill="white" transform="rotate(20 8 -22)"/>
    <!-- Hat bells -->
    <circle cx="-12" cy="-38" r="2" fill="#ffd700"/>
    <circle cx="12" cy="-38" r="2" fill="#ffd700"/>
    
    <!-- Eyes (large and expressive) -->
    <circle cx="-5" cy="-22" r="3" fill="white"/>
    <circle cx="5" cy="-22" r="3" fill="white"/>
    <circle cx="-4" cy="-22" r="2" fill="black"/>
    <circle cx="6" cy="-22" r="2" fill="black"/>
    <!-- Eye highlights -->
    <circle cx="-3" cy="-23" r="0.8" fill="white"/>
    <circle cx="7" cy="-23" r="0.8" fill="white"/>
    
    <!-- Nose (small) -->
    <circle cx="0" cy="-19" r="1" fill="#daa520"/>
    
    <!-- Mouth (cheerful smile) -->
    <path d="M -4 -16 Q 0 -12 4 -16" stroke="black" stroke-width="1.5" fill="none"/>
    
    <!-- Arms (thin and animated) -->
    <ellipse cx="-16" cy="0" rx="4" ry="10" fill="#87ceeb"/>
    <ellipse cx="16" cy="0" rx="4" ry="10" fill="#87ceeb"/>
    <!-- Hands -->
    <circle cx="-18" cy="8" r="3" fill="#f5deb3"/>
    <circle cx="18" cy="8" r="3" fill="#f5deb3"/>
    
    <!-- Legs/feet (red shoes) -->
    <ellipse cx="-6" cy="22" rx="4" ry="6" fill="#dc143c"/>
    <ellipse cx="6" cy="22" rx="4" ry="6" fill="#dc143c"/>
    <!-- Shoe tips (curled) -->
    <ellipse cx="-8" cy="26" rx="3" ry="2" fill="#8b0000"/>
    <ellipse cx="8" cy="26" rx="3" ry="2" fill="#8b0000"/>
    
    <!-- Magic sparkles -->
    <g fill="#ffd700" opacity="0.7">
      <circle cx="-22" cy="-8" r="1"/>
      <circle cx="24" cy="-5" r="1"/>
      <circle cx="-20" cy="15" r="1"/>
      <circle cx="20" cy="18" r="1"/>
      <polygon points="0,-40 0.5,-38 2,-38 0.5,-36 1,-34 0,-35 -1,-34 -0.5,-36 -2,-38 -0.5,-38" />
    </g>
  </g>
</svg>