<svg width="80" height="80" viewBox="0 0 80 80" xmlns="http://www.w3.org/2000/svg">
  <!-- Character Illustration Only -->
  <g transform="translate(40, 40)">
    <!-- Round body with striped pink background pattern -->
    <defs>
      <pattern id="stripes" patternUnits="userSpaceOnUse" width="4" height="4" patternTransform="rotate(0)">
        <rect width="4" height="2" fill="#fce7f3"/>
        <rect y="2" width="4" height="2" fill="#f8bbd9"/>
      </pattern>
    </defs>
    
    <!-- Main body -->
    <ellipse cx="0" cy="2" rx="18" ry="22" fill="url(#stripes)"/>
    <ellipse cx="0" cy="0" rx="15" ry="19" fill="#fce7f3" opacity="0.8"/>
    
    <!-- Big cute googly eyes -->
    <circle cx="-6" cy="-6" r="6" fill="white"/>
    <circle cx="6" cy="-6" r="6" fill="white"/>
    <circle cx="-5" cy="-5" r="4" fill="black"/>
    <circle cx="7" cy="-5" r="4" fill="black"/>
    <!-- Eye highlights -->
    <circle cx="-4" cy="-7" r="1.5" fill="white"/>
    <circle cx="8" cy="-7" r="1.5" fill="white"/>
    
    <!-- Small cute smile -->
    <path d="M -4 4 Q 0 8 4 4" stroke="black" stroke-width="2" fill="none"/>
    
    <!-- Santa hat -->
    <path d="M -18 -18 Q -5 -30 8 -22 Q 15 -20 12 -12 Q 8 -8 0 -10 Q -8 -12 -18 -18" fill="#dc2626"/>
    <!-- Hat fur trim -->
    <ellipse cx="-2" cy="-10" rx="12" ry="3" fill="white"/>
    <!-- Hat pompom -->
    <circle cx="12" cy="-18" r="4" fill="white"/>
    
    <!-- Cute little arms raised up -->
    <circle cx="-16" cy="4" r="5" fill="#fce7f3"/>
    <circle cx="16" cy="4" r="5" fill="#fce7f3"/>
    <!-- Hand gloves -->
    <circle cx="-18" cy="0" r="3" fill="white"/>
    <circle cx="18" cy="0" r="3" fill="white"/>
    
    <!-- Small feet -->
    <ellipse cx="-6" cy="20" rx="3" ry="5" fill="#dc2626"/>
    <ellipse cx="6" cy="20" rx="3" ry="5" fill="#dc2626"/>
    
    <!-- Bow tie -->
    <path d="M -4 10 L -8 8 L -8 12 L -4 10 L 4 10 L 8 8 L 8 12 L 4 10 Z" fill="#3b82f6"/>
    <circle cx="0" cy="10" r="2" fill="#1e40af"/>
    
    <!-- Christmas sparkles -->
    <g fill="#fbbf24" opacity="0.8">
      <polygon points="-25,-5 -24,-3 -22,-3 -24,-1 -23,1 -25,0 -27,1 -26,-1 -28,-3 -26,-3" />
      <polygon points="24,8 25,10 27,10 25,12 26,14 24,13 22,14 23,12 21,10 23,10" />
      <circle cx="-12" cy="25" r="1"/>
      <circle cx="18" cy="-8" r="1"/>
    </g>
  </g>
</svg>