<svg width="80" height="80" viewBox="0 0 80 80" xmlns="http://www.w3.org/2000/svg">
  <!-- Character Illustration Only -->
  <g transform="translate(40, 40)">
    <!-- Cute round body -->
    <ellipse cx="0" cy="0" rx="20" ry="25" fill="#ef4444"/>
    <ellipse cx="0" cy="-2" rx="16" ry="20" fill="#f87171"/>
    
    <!-- Spring coil pattern on body -->
    <g stroke="#dc2626" stroke-width="2" fill="none" opacity="0.6">
      <path d="M -10 -15 Q 0 -18 10 -15 Q 0 -12 -10 -15"/>
      <path d="M -10 -5 Q 0 -8 10 -5 Q 0 -2 -10 -5"/>
      <path d="M -10 5 Q 0 2 10 5 Q 0 8 -10 5"/>
      <path d="M -10 15 Q 0 12 10 15 Q 0 18 -10 15"/>
    </g>
    
    <!-- Big cute eyes -->
    <circle cx="-7" cy="-8" r="5" fill="white"/>
    <circle cx="7" cy="-8" r="5" fill="white"/>
    <circle cx="-6" cy="-8" r="3" fill="black"/>
    <circle cx="8" cy="-8" r="3" fill="black"/>
    <!-- Eye highlights -->
    <circle cx="-5" cy="-9" r="1" fill="white"/>
    <circle cx="9" cy="-9" r="1" fill="white"/>
    
    <!-- Cute smile -->
    <path d="M -8 2 Q 0 10 8 2" stroke="black" stroke-width="2" fill="none"/>
    
    <!-- Cheek blush -->
    <circle cx="-15" cy="2" r="3" fill="#fbbf24" opacity="0.4"/>
    <circle cx="15" cy="2" r="3" fill="#fbbf24" opacity="0.4"/>
    
    <!-- Cute little arms -->
    <circle cx="-18" cy="8" r="6" fill="#ef4444"/>
    <circle cx="18" cy="8" r="6" fill="#ef4444"/>
    
    <!-- Spring feet -->
    <ellipse cx="-8" cy="22" rx="4" ry="6" fill="#dc2626"/>
    <ellipse cx="8" cy="22" rx="4" ry="6" fill="#dc2626"/>
    
    <!-- Bouncy sparkles -->
    <g fill="#fbbf24" opacity="0.8">
      <polygon points="0,-30 1,-28 3,-28 1,-26 2,-24 0,-25 -2,-24 -1,-26 -3,-28 -1,-28" />
      <circle cx="-20" cy="-10" r="1"/>
      <circle cx="22" cy="-5" r="1"/>
      <circle cx="-15" cy="15" r="1"/>
      <circle cx="20" cy="18" r="1"/>
    </g>
  </g>
</svg>